<mxfile host="app.diagrams.net" agent="Mozilla/5.0 (Windows NT 10.0; Win64; x64) AppleWebKit/537.36 (KHTML, like Gecko) Chrome/141.0.0.0 Safari/537.36" version="28.2.5">
  <diagram name="Page-1" id="_m0aG20u94ZwYGfxps-P">
    <mxGraphModel dx="2133" dy="1378" grid="1" gridSize="10" guides="1" tooltips="1" connect="1" arrows="1" fold="1" page="1" pageScale="1" pageWidth="850" pageHeight="1100" math="0" shadow="0">
      <root>
        <mxCell id="0" />
        <mxCell id="1" parent="0" />
        <mxCell id="mz9cfLvYFsyk8TysnXxC-4" value="" style="rounded=0;whiteSpace=wrap;html=1;fillColor=none;" vertex="1" parent="1">
          <mxGeometry x="305" y="100" width="415" height="1200" as="geometry" />
        </mxCell>
        <mxCell id="mz9cfLvYFsyk8TysnXxC-1" value="Team member" style="shape=umlActor;verticalLabelPosition=bottom;verticalAlign=top;html=1;outlineConnect=0;" vertex="1" parent="1">
          <mxGeometry x="-290" y="450" width="30" height="60" as="geometry" />
        </mxCell>
        <mxCell id="mz9cfLvYFsyk8TysnXxC-15" style="rounded=0;orthogonalLoop=1;jettySize=auto;html=1;exitX=0.5;exitY=0.5;exitDx=0;exitDy=0;exitPerimeter=0;entryX=0;entryY=0.5;entryDx=0;entryDy=0;endArrow=none;endFill=0;" edge="1" parent="1" source="mz9cfLvYFsyk8TysnXxC-2" target="mz9cfLvYFsyk8TysnXxC-6">
          <mxGeometry relative="1" as="geometry" />
        </mxCell>
        <mxCell id="mz9cfLvYFsyk8TysnXxC-26" style="edgeStyle=none;shape=connector;rounded=0;orthogonalLoop=1;jettySize=auto;html=1;exitX=0.5;exitY=0.5;exitDx=0;exitDy=0;exitPerimeter=0;entryX=0;entryY=0.5;entryDx=0;entryDy=0;strokeColor=default;align=center;verticalAlign=middle;fontFamily=Helvetica;fontSize=11;fontColor=default;labelBackgroundColor=default;endArrow=none;endFill=0;" edge="1" parent="1" source="mz9cfLvYFsyk8TysnXxC-2" target="mz9cfLvYFsyk8TysnXxC-10">
          <mxGeometry relative="1" as="geometry" />
        </mxCell>
        <mxCell id="mz9cfLvYFsyk8TysnXxC-28" style="edgeStyle=none;shape=connector;rounded=0;orthogonalLoop=1;jettySize=auto;html=1;exitX=0.5;exitY=0.5;exitDx=0;exitDy=0;exitPerimeter=0;entryX=0;entryY=0.5;entryDx=0;entryDy=0;strokeColor=default;align=center;verticalAlign=middle;fontFamily=Helvetica;fontSize=11;fontColor=default;labelBackgroundColor=default;endArrow=none;endFill=0;" edge="1" parent="1" source="mz9cfLvYFsyk8TysnXxC-2" target="mz9cfLvYFsyk8TysnXxC-11">
          <mxGeometry relative="1" as="geometry" />
        </mxCell>
        <mxCell id="mz9cfLvYFsyk8TysnXxC-2" value="Team Leader&amp;nbsp;&lt;div&gt;(project creator)&lt;/div&gt;" style="shape=umlActor;verticalLabelPosition=bottom;verticalAlign=top;html=1;outlineConnect=0;" vertex="1" parent="1">
          <mxGeometry x="-289" y="590" width="30" height="60" as="geometry" />
        </mxCell>
        <mxCell id="mz9cfLvYFsyk8TysnXxC-18" style="rounded=0;orthogonalLoop=1;jettySize=auto;html=1;exitX=0.5;exitY=0.5;exitDx=0;exitDy=0;exitPerimeter=0;entryX=0;entryY=0.5;entryDx=0;entryDy=0;endArrow=none;endFill=0;" edge="1" parent="1" source="mz9cfLvYFsyk8TysnXxC-3" target="mz9cfLvYFsyk8TysnXxC-6">
          <mxGeometry relative="1" as="geometry" />
        </mxCell>
        <mxCell id="mz9cfLvYFsyk8TysnXxC-27" style="edgeStyle=none;shape=connector;rounded=0;orthogonalLoop=1;jettySize=auto;html=1;exitX=0.5;exitY=0.5;exitDx=0;exitDy=0;exitPerimeter=0;strokeColor=default;align=center;verticalAlign=middle;fontFamily=Helvetica;fontSize=11;fontColor=default;labelBackgroundColor=default;endArrow=none;endFill=0;" edge="1" parent="1" source="mz9cfLvYFsyk8TysnXxC-3">
          <mxGeometry relative="1" as="geometry">
            <mxPoint x="330" y="710" as="targetPoint" />
          </mxGeometry>
        </mxCell>
        <mxCell id="mz9cfLvYFsyk8TysnXxC-29" style="edgeStyle=none;shape=connector;rounded=0;orthogonalLoop=1;jettySize=auto;html=1;exitX=0.5;exitY=0.5;exitDx=0;exitDy=0;exitPerimeter=0;entryX=0;entryY=0.5;entryDx=0;entryDy=0;strokeColor=default;align=center;verticalAlign=middle;fontFamily=Helvetica;fontSize=11;fontColor=default;labelBackgroundColor=default;endArrow=none;endFill=0;" edge="1" parent="1" source="mz9cfLvYFsyk8TysnXxC-3" target="mz9cfLvYFsyk8TysnXxC-11">
          <mxGeometry relative="1" as="geometry" />
        </mxCell>
        <mxCell id="mz9cfLvYFsyk8TysnXxC-49" style="edgeStyle=none;shape=connector;rounded=0;orthogonalLoop=1;jettySize=auto;html=1;exitX=0.5;exitY=0.5;exitDx=0;exitDy=0;exitPerimeter=0;entryX=0;entryY=0.5;entryDx=0;entryDy=0;strokeColor=default;align=center;verticalAlign=middle;fontFamily=Helvetica;fontSize=11;fontColor=default;labelBackgroundColor=default;endArrow=none;endFill=0;" edge="1" parent="1" source="mz9cfLvYFsyk8TysnXxC-3" target="mz9cfLvYFsyk8TysnXxC-48">
          <mxGeometry relative="1" as="geometry" />
        </mxCell>
        <mxCell id="mz9cfLvYFsyk8TysnXxC-3" value="Administrator" style="shape=umlActor;verticalLabelPosition=bottom;verticalAlign=top;html=1;outlineConnect=0;" vertex="1" parent="1">
          <mxGeometry x="-290" y="760" width="30" height="60" as="geometry" />
        </mxCell>
        <mxCell id="mz9cfLvYFsyk8TysnXxC-5" value="Task Manager System" style="text;html=1;align=left;verticalAlign=middle;whiteSpace=wrap;rounded=0;fontStyle=4;fontSize=15;" vertex="1" parent="1">
          <mxGeometry x="320" y="111" width="250" height="30" as="geometry" />
        </mxCell>
        <mxCell id="mz9cfLvYFsyk8TysnXxC-6" value="Create project" style="ellipse;whiteSpace=wrap;html=1;" vertex="1" parent="1">
          <mxGeometry x="330" y="190" width="120" height="80" as="geometry" />
        </mxCell>
        <mxCell id="mz9cfLvYFsyk8TysnXxC-7" value="Create task" style="ellipse;whiteSpace=wrap;html=1;" vertex="1" parent="1">
          <mxGeometry x="330" y="315" width="120" height="80" as="geometry" />
        </mxCell>
        <mxCell id="mz9cfLvYFsyk8TysnXxC-8" value="User login" style="ellipse;whiteSpace=wrap;html=1;" vertex="1" parent="1">
          <mxGeometry x="330" y="430" width="120" height="80" as="geometry" />
        </mxCell>
        <mxCell id="mz9cfLvYFsyk8TysnXxC-9" value="Search project" style="ellipse;whiteSpace=wrap;html=1;" vertex="1" parent="1">
          <mxGeometry x="330" y="550" width="120" height="80" as="geometry" />
        </mxCell>
        <mxCell id="mz9cfLvYFsyk8TysnXxC-10" value="Add user to project" style="ellipse;whiteSpace=wrap;html=1;" vertex="1" parent="1">
          <mxGeometry x="330" y="670" width="120" height="80" as="geometry" />
        </mxCell>
        <mxCell id="mz9cfLvYFsyk8TysnXxC-11" value="Update project details" style="ellipse;whiteSpace=wrap;html=1;" vertex="1" parent="1">
          <mxGeometry x="330" y="790" width="120" height="80" as="geometry" />
        </mxCell>
        <mxCell id="mz9cfLvYFsyk8TysnXxC-13" value="Update task details" style="ellipse;whiteSpace=wrap;html=1;" vertex="1" parent="1">
          <mxGeometry x="330" y="910" width="120" height="80" as="geometry" />
        </mxCell>
        <mxCell id="mz9cfLvYFsyk8TysnXxC-14" value="New user onboarding" style="ellipse;whiteSpace=wrap;html=1;" vertex="1" parent="1">
          <mxGeometry x="330" y="1030" width="120" height="80" as="geometry" />
        </mxCell>
        <mxCell id="mz9cfLvYFsyk8TysnXxC-42" style="edgeStyle=none;shape=connector;rounded=0;orthogonalLoop=1;jettySize=auto;html=1;exitX=0.5;exitY=0.5;exitDx=0;exitDy=0;exitPerimeter=0;entryX=0;entryY=0.5;entryDx=0;entryDy=0;strokeColor=default;align=center;verticalAlign=middle;fontFamily=Helvetica;fontSize=11;fontColor=default;labelBackgroundColor=default;endArrow=none;endFill=0;" edge="1" parent="1" source="mz9cfLvYFsyk8TysnXxC-36" target="mz9cfLvYFsyk8TysnXxC-7">
          <mxGeometry relative="1" as="geometry" />
        </mxCell>
        <mxCell id="mz9cfLvYFsyk8TysnXxC-43" style="edgeStyle=none;shape=connector;rounded=0;orthogonalLoop=1;jettySize=auto;html=1;exitX=0.5;exitY=0.5;exitDx=0;exitDy=0;exitPerimeter=0;entryX=0;entryY=0.5;entryDx=0;entryDy=0;strokeColor=default;align=center;verticalAlign=middle;fontFamily=Helvetica;fontSize=11;fontColor=default;labelBackgroundColor=default;endArrow=none;endFill=0;" edge="1" parent="1" source="mz9cfLvYFsyk8TysnXxC-36" target="mz9cfLvYFsyk8TysnXxC-8">
          <mxGeometry relative="1" as="geometry" />
        </mxCell>
        <mxCell id="mz9cfLvYFsyk8TysnXxC-44" style="edgeStyle=none;shape=connector;rounded=0;orthogonalLoop=1;jettySize=auto;html=1;exitX=0.5;exitY=0.5;exitDx=0;exitDy=0;exitPerimeter=0;entryX=0;entryY=0.5;entryDx=0;entryDy=0;strokeColor=default;align=center;verticalAlign=middle;fontFamily=Helvetica;fontSize=11;fontColor=default;labelBackgroundColor=default;endArrow=none;endFill=0;" edge="1" parent="1" source="mz9cfLvYFsyk8TysnXxC-36" target="mz9cfLvYFsyk8TysnXxC-9">
          <mxGeometry relative="1" as="geometry" />
        </mxCell>
        <mxCell id="mz9cfLvYFsyk8TysnXxC-45" style="edgeStyle=none;shape=connector;rounded=0;orthogonalLoop=1;jettySize=auto;html=1;exitX=0.5;exitY=0.5;exitDx=0;exitDy=0;exitPerimeter=0;strokeColor=default;align=center;verticalAlign=middle;fontFamily=Helvetica;fontSize=11;fontColor=default;labelBackgroundColor=default;endArrow=none;endFill=0;entryX=0;entryY=0.5;entryDx=0;entryDy=0;" edge="1" parent="1" source="mz9cfLvYFsyk8TysnXxC-36" target="mz9cfLvYFsyk8TysnXxC-13">
          <mxGeometry relative="1" as="geometry">
            <mxPoint x="-240" y="410" as="targetPoint" />
          </mxGeometry>
        </mxCell>
        <mxCell id="mz9cfLvYFsyk8TysnXxC-46" style="edgeStyle=none;shape=connector;rounded=0;orthogonalLoop=1;jettySize=auto;html=1;exitX=0.5;exitY=0.5;exitDx=0;exitDy=0;exitPerimeter=0;strokeColor=default;align=center;verticalAlign=middle;fontFamily=Helvetica;fontSize=11;fontColor=default;labelBackgroundColor=default;endArrow=none;endFill=0;entryX=0;entryY=0.5;entryDx=0;entryDy=0;" edge="1" parent="1" source="mz9cfLvYFsyk8TysnXxC-36" target="mz9cfLvYFsyk8TysnXxC-14">
          <mxGeometry relative="1" as="geometry">
            <mxPoint x="-190" y="510" as="targetPoint" />
          </mxGeometry>
        </mxCell>
        <mxCell id="mz9cfLvYFsyk8TysnXxC-36" value="User" style="shape=umlActor;verticalLabelPosition=bottom;verticalAlign=top;html=1;outlineConnect=0;fontFamily=Helvetica;fontSize=11;fontColor=default;labelBackgroundColor=default;" vertex="1" parent="1">
          <mxGeometry x="-280" y="290" width="30" height="60" as="geometry" />
        </mxCell>
        <mxCell id="mz9cfLvYFsyk8TysnXxC-39" value="Extends" style="endArrow=block;endSize=16;endFill=0;html=1;rounded=0;strokeColor=default;align=center;verticalAlign=middle;fontFamily=Helvetica;fontSize=11;fontColor=default;labelBackgroundColor=default;entryX=0.5;entryY=0.5;entryDx=0;entryDy=0;entryPerimeter=0;exitX=0.5;exitY=0.5;exitDx=0;exitDy=0;exitPerimeter=0;edgeStyle=orthogonalEdgeStyle;" edge="1" parent="1" source="mz9cfLvYFsyk8TysnXxC-1" target="mz9cfLvYFsyk8TysnXxC-36">
          <mxGeometry x="0.0028" width="160" relative="1" as="geometry">
            <mxPoint x="-450" y="350" as="sourcePoint" />
            <mxPoint x="-290" y="350" as="targetPoint" />
            <Array as="points">
              <mxPoint x="-340" y="480" />
              <mxPoint x="-340" y="320" />
            </Array>
            <mxPoint as="offset" />
          </mxGeometry>
        </mxCell>
        <mxCell id="mz9cfLvYFsyk8TysnXxC-40" value="Extends" style="endArrow=block;endSize=16;endFill=0;html=1;rounded=0;strokeColor=default;align=center;verticalAlign=middle;fontFamily=Helvetica;fontSize=11;fontColor=default;labelBackgroundColor=default;entryX=0.5;entryY=0.5;entryDx=0;entryDy=0;entryPerimeter=0;exitX=0.5;exitY=0.5;exitDx=0;exitDy=0;exitPerimeter=0;edgeStyle=orthogonalEdgeStyle;" edge="1" parent="1" source="mz9cfLvYFsyk8TysnXxC-2" target="mz9cfLvYFsyk8TysnXxC-36">
          <mxGeometry x="0.0028" width="160" relative="1" as="geometry">
            <mxPoint x="-265" y="630" as="sourcePoint" />
            <mxPoint x="-255" y="470" as="targetPoint" />
            <Array as="points">
              <mxPoint x="-274" y="630" />
              <mxPoint x="-400" y="630" />
              <mxPoint x="-400" y="320" />
            </Array>
            <mxPoint as="offset" />
          </mxGeometry>
        </mxCell>
        <mxCell id="mz9cfLvYFsyk8TysnXxC-41" value="Extends" style="endArrow=block;endSize=16;endFill=0;html=1;rounded=0;strokeColor=default;align=center;verticalAlign=middle;fontFamily=Helvetica;fontSize=11;fontColor=default;labelBackgroundColor=default;exitX=0.5;exitY=0.5;exitDx=0;exitDy=0;exitPerimeter=0;edgeStyle=orthogonalEdgeStyle;" edge="1" parent="1" source="mz9cfLvYFsyk8TysnXxC-3">
          <mxGeometry x="0.0028" width="160" relative="1" as="geometry">
            <mxPoint x="-424" y="710" as="sourcePoint" />
            <mxPoint x="-270" y="320" as="targetPoint" />
            <Array as="points">
              <mxPoint x="-470" y="790" />
              <mxPoint x="-470" y="320" />
            </Array>
            <mxPoint as="offset" />
          </mxGeometry>
        </mxCell>
        <mxCell id="mz9cfLvYFsyk8TysnXxC-48" value="Add new administrator" style="ellipse;whiteSpace=wrap;html=1;fontFamily=Helvetica;fontSize=11;fontColor=default;labelBackgroundColor=default;" vertex="1" parent="1">
          <mxGeometry x="330" y="1150" width="120" height="80" as="geometry" />
        </mxCell>
      </root>
    </mxGraphModel>
  </diagram>
</mxfile>
